<svg width="115" height="22" viewBox="0 0 115 22" xmlns="http://www.w3.org/2000/svg"><title>03C29520-D563-4ADC-B91B-B4FD60294661</title><g fill="none" fill-rule="evenodd"><path d="M29.272 8.353h6.712v9.593h.05c2.65 0 4.798-2.086 4.798-4.66V8.353h6.899V4.37H29.272v3.983zM61.406 13.965h-4.613c-1.61 0-3-1.198-3.075-2.758-.08-1.66 1.288-3.035 2.98-3.035h4.613c1.61 0 3 1.198 3.075 2.758.08 1.66-1.288 3.035-2.98 3.035m1.14-9.776h-6.988c-3.897 0-7.085 3.096-7.085 6.88 0 3.783 3.188 6.88 7.085 6.88h6.988c3.896 0 7.085-3.097 7.085-6.88 0-3.784-3.189-6.88-7.085-6.88M106.115 13.965h-4.613c-1.609 0-3-1.198-3.075-2.758-.08-1.66 1.288-3.035 2.98-3.035h4.614c1.608 0 3 1.198 3.074 2.758.08 1.66-1.288 3.035-2.98 3.035m1.14-9.776h-6.988c-3.896 0-7.084 3.096-7.084 6.88 0 3.783 3.188 6.88 7.084 6.88h6.988c3.897 0 7.085-3.097 7.085-6.88 0-3.784-3.188-6.88-7.085-6.88M85.393 9.27c0 .69-.581 1.256-1.292 1.256h-6.54V7.99h6.54c.71 0 1.292.565 1.292 1.255v.025zm4.91.207c0-1.355-.57-2.586-1.491-3.48a5.134 5.134 0 0 0-3.583-1.447H72.155V17.766h5.22v-3.258h5.519l1.936 3.258h5.473l-2.348-4.14c1.409-.878 2.348-2.412 2.348-4.149z" fill="#08192B"/><path d="M10.628 21.86v-5.404c0-.058-.068-.091-.116-.057-2.761 1.99-5.904 3.803-9.36 5.398-.07.032-.046.134.032.134h9.37c.041 0 .074-.032.074-.07M21.813.317c.034-.047 0-.111-.06-.111H7.522C3.367.206 0 3.448 0 7.448v6.78c0 .049.05.083.096.067C9.806 11.12 17.536 6.166 21.813.317M14.543 13.3v8.56c0 .04.033.071.073.071h.237c4.154 0 7.52-3.242 7.52-7.242V2.2c0-.08-.114-.098-.14-.023-1.407 3.947-4.041 7.695-7.668 11.072a.07.07 0 0 0-.022.05" fill="#00ADD2"/></g></svg>