<svg width="115" height="22" viewBox="0 0 115 22" fill="none" xmlns="http://www.w3.org/2000/svg">
<path fill-rule="evenodd" clip-rule="evenodd" d="M29.2724 8.35266H35.9844V17.9459H36.0331C38.6834 17.9459 40.8322 15.8596 40.8322 13.2858V8.35266H47.7307V4.36963H29.2724V8.35266Z" fill="white"/>
<path fill-rule="evenodd" clip-rule="evenodd" d="M61.4057 13.9652H56.7925C55.1835 13.9652 53.7932 12.7673 53.7181 11.2065C53.6382 9.54685 55.0056 8.17154 56.6981 8.17154H61.3111C62.9201 8.17154 64.3106 9.36962 64.3855 10.9302C64.4654 12.5903 63.0977 13.9652 61.4057 13.9652ZM62.5457 4.18872H55.5581C51.6612 4.18872 48.473 7.28455 48.473 11.0683C48.473 14.8521 51.6612 17.9482 55.5581 17.9482H62.5457C66.4424 17.9482 69.6308 14.8521 69.6308 11.0683C69.6308 7.28455 66.4424 4.18872 62.5457 4.18872Z" fill="white"/>
<path fill-rule="evenodd" clip-rule="evenodd" d="M106.115 13.9652H101.502C99.8931 13.9652 98.5026 12.7673 98.4274 11.2065C98.3476 9.54685 99.7152 8.17154 101.407 8.17154H106.021C107.629 8.17154 109.02 9.36962 109.095 10.9302C109.175 12.5903 107.807 13.9652 106.115 13.9652ZM107.255 4.18872H100.267C96.3708 4.18872 93.1826 7.28455 93.1826 11.0683C93.1826 14.8521 96.3708 17.9482 100.267 17.9482H107.255C111.152 17.9482 114.34 14.8521 114.34 11.0683C114.34 7.28455 111.152 4.18872 107.255 4.18872Z" fill="white"/>
<path fill-rule="evenodd" clip-rule="evenodd" d="M85.3932 9.27088C85.3932 9.96069 84.8118 10.5255 84.101 10.5255H77.5616V7.99097H84.101C84.8118 7.99097 85.3932 8.55557 85.3932 9.2458V9.27088ZM90.3028 9.4769C90.3028 8.12195 89.7326 6.89077 88.8118 5.99617C87.8924 5.10363 86.6243 4.54993 85.2291 4.54993H72.1552V12.2012V14.5081V17.7664H77.3752V14.5081H82.894L84.8302 17.7664H90.3028L87.9553 13.6263C89.3636 12.7479 90.3028 11.2137 90.3028 9.4769Z" fill="white"/>
<path fill-rule="evenodd" clip-rule="evenodd" d="M10.6277 21.8605V16.4557C10.6277 16.3975 10.5599 16.3644 10.5116 16.3992C7.75054 18.3882 4.60809 20.2017 1.15248 21.7968C1.08261 21.8293 1.10633 21.9313 1.18382 21.9313H10.5548C10.5951 21.9313 10.6277 21.8994 10.6277 21.8605Z" fill="#00ADD2"/>
<mask id="mask0" mask-type="alpha" maskUnits="userSpaceOnUse" x="0" y="0" width="22" height="15">
<path fill-rule="evenodd" clip-rule="evenodd" d="M0 7.25238V0.205566H21.8268V14.2992H0V7.25238Z" fill="white"/>
</mask>
<g mask="url(#mask0)">
<path fill-rule="evenodd" clip-rule="evenodd" d="M21.8133 0.317089C21.8474 0.270211 21.8127 0.205444 21.7538 0.205444H7.52082C3.36731 0.205444 0 3.44808 0 7.44797V14.2283C0 14.2768 0.0491238 14.3109 0.096342 14.2953C9.8055 11.1201 17.5364 6.16621 21.8133 0.317089Z" fill="#00ADD2"/>
</g>
<path fill-rule="evenodd" clip-rule="evenodd" d="M14.543 13.2995V21.8606C14.543 21.8994 14.5756 21.9311 14.6158 21.9311H14.8534C19.0067 21.9311 22.3738 18.6887 22.3738 14.6888V2.20038C22.3738 2.12081 22.2593 2.10189 22.2324 2.17715C20.8262 6.12358 18.1919 9.87221 14.5652 13.2487C14.551 13.2619 14.543 13.2802 14.543 13.2995Z" fill="#00ADD2"/>
</svg>
